<?xml version="1.0" encoding="UTF-8"?>
<svg width="24px" height="24px" viewBox="0 0 24 24" version="1.1" xmlns="http://www.w3.org/2000/svg">
    <path d="M17.5,8.44771525 C17.5,11.5938753 15.9368753,13.5 12.5,13.5 C12.3561469,13.5 12.2153334,13.4961547 12.0776325,13.4886708 L12.0776325,15.5 C12.0776325,15.7761424 11.8537749,16 11.5776325,16 C11.3014901,16 11.0776325,15.7761424 11.0776325,15.5 L11.0776325,13.4511826 C8.07023702,13.1641474 6.5,11.2531471 6.5,8.44771525 C6.5,5.02839447 8.85786438,2.67053009 12.2771852,2.67053009 C15.6965059,2.67053009 17.5,5.02839447 17.5,8.44771525 Z M12.2771852,3.67053009 C9.45933124,3.67053009 7.5,5.63025347 7.5,8.44771525 C7.5,11.2651771 9.45933124,12.5 12.2771852,12.5 C15.0950391,12.5 16.5,11.2651771 16.5,8.44771525 C16.5,5.63025347 15.0950391,3.67053009 12.2771852,3.67053009 Z" fill="#72B972" fill-rule="nonzero"/>
</svg>
